<?xml version="1.0" encoding="utf-8"?>
<!-- Generator: Adobe Illustrator 26.0.1, SVG Export Plug-In . SVG Version: 6.00 Build 0)  -->
<svg version="1.1" xmlns="http://www.w3.org/2000/svg" xmlns:xlink="http://www.w3.org/1999/xlink" x="0px" y="0px"
	 viewBox="0 0 1205.8 595.3" style="enable-background:new 0 0 1205.8 595.3;" xml:space="preserve">
<style type="text/css">
	.st0{fill:none;}
	.st1{fill:#AC6FAF;}
	.st2{font-family:'Ubuntu-Bold';}
	.st3{font-size:11px;}
	.st4{font-size:13px;}
	.st5{fill:#195C7C;}
	.st6{fill:#2FB5C2;}
	.st7{fill:#6CC4A1;}
	.st8{fill:#CEDC2A;}
	.st9{fill:#FAAE29;}
	.st10{fill:#EC474B;}
	.st11{fill:#A63779;}
	.st12{fill:url(#SVGID_1_);}
	.st13{fill:none;stroke:url(#SVGID_00000092427979744054044680000001109626702500450693_);stroke-miterlimit:10;}
	.st14{fill:url(#SVGID_00000156575769666614670360000001401459959184191391_);}
	.st15{fill:none;stroke:url(#SVGID_00000029750874165530655140000012538971369135245441_);stroke-miterlimit:10;}
	.st16{fill:url(#SVGID_00000001628764395621721640000017115418003931649955_);}
	.st17{fill:none;stroke:url(#SVGID_00000028303188667991539860000000742867507519318432_);stroke-miterlimit:10;}
	.st18{fill:url(#SVGID_00000042004145665062282130000013093229865057784198_);}
	.st19{fill:none;stroke:url(#SVGID_00000045618087550127952880000006958739817135535790_);stroke-miterlimit:10;}
	.st20{fill:url(#SVGID_00000042731817095697340000000011028724537655751609_);}
	.st21{fill:none;stroke:url(#SVGID_00000031179440857522891110000009192760564258041729_);stroke-miterlimit:10;}
	.st22{fill:url(#SVGID_00000126296477201939483530000013022311271950685831_);}
	.st23{fill:none;stroke:url(#SVGID_00000047748548740879532500000005849531747140830133_);stroke-miterlimit:10;}
	.st24{fill:url(#SVGID_00000150788680694955872180000009676057103943987847_);}
	.st25{fill:none;stroke:url(#SVGID_00000134932780902844599350000005622636736318965176_);stroke-miterlimit:10;}
	.st26{fill:url(#SVGID_00000016758192798035875170000000366354111296644755_);}
	.st27{fill:none;stroke:url(#SVGID_00000147212437596249886390000011008284080363781515_);stroke-miterlimit:10;}
	.st28{fill:none;stroke:#333333;stroke-width:25;stroke-miterlimit:10;}
	.st29{fill:none;stroke:#4D4E4E;stroke-width:25;stroke-miterlimit:10;}
	.st30{fill:none;stroke:#FFFFFF;stroke-width:0.75;stroke-miterlimit:10;}
	.st31{fill:none;stroke:#FFFFFF;stroke-width:2;stroke-miterlimit:10;}
	.st32{fill:none;stroke:#FFFFFF;stroke-width:2;stroke-miterlimit:10;stroke-dasharray:8.0845,9.0951,8.0845,9.0951;}
	.st33{fill:none;stroke:#FFFFFF;stroke-width:2;stroke-miterlimit:10;stroke-dasharray:8.0845,9.0951,8.0845,9.0951,8.0845,9.0951;}
</style>
<g id="Layer_1">
	
		<image style="display:none;overflow:visible;" width="1280" height="670" xlink:href="../Downloads/WhatsApp Image 2025-02-12 at 12.52.56 PM.jpeg"  transform="matrix(0.7624 0 0 0.7624 804.7059 626.8377)">
	</image>
	<rect x="176.3" y="466.5" class="st0" width="74.8" height="19.1"/>
	<text transform="matrix(1 0 0 1 179.7657 475.0635)" class="st1 st2 st3">MARCH 2025</text>
	<rect x="176.3" y="267" class="st0" width="74.8" height="19.1"/>
	<text transform="matrix(1 0 0 1 204.2271 277.0906)" class="st1 st2 st4">M1</text>
	<rect x="294.7" y="218.9" class="st0" width="74.8" height="19.1"/>
	<text transform="matrix(1 0 0 1 322.5506 229.0159)" class="st5 st2 st4">M2</text>
	<rect x="430.2" y="267.6" class="st0" width="74.8" height="19.1"/>
	<text transform="matrix(1 0 0 1 458.0607 277.6491)" class="st6 st2 st4">M3</text>
	<rect x="552.5" y="219.5" class="st0" width="74.8" height="19.1"/>
	<text transform="matrix(1 0 0 1 580.3841 229.5742)" class="st7 st2 st4">M4</text>
	<rect x="677.3" y="268.3" class="st0" width="74.8" height="19.1"/>
	<text transform="matrix(1 0 0 1 705.1732 278.4027)" class="st8 st2 st4">M5</text>
	<rect x="801.9" y="220" class="st0" width="74.8" height="19.1"/>
	<text transform="matrix(1 0 0 1 829.743 230.1325)" class="st9 st2 st4">M6</text>
	<rect x="929.2" y="269.1" class="st0" width="74.8" height="19.1"/>
	<text transform="matrix(1 0 0 1 957.0682 279.1563)" class="st10 st2 st4">M7</text>
	<rect x="1049.6" y="220.8" class="st0" width="74.8" height="19.1"/>
	<text transform="matrix(1 0 0 1 1077.4915 230.8724)" class="st11 st2 st4">M8</text>
	<rect x="294.7" y="418.5" class="st0" width="74.8" height="19.1"/>
	<text transform="matrix(1 0 0 1 298.0892 427.07)" class="st5 st2 st3">MARCH 2025</text>
	<rect x="426" y="464.5" class="st0" width="74.8" height="19.1"/>
	<text transform="matrix(1 0 0 1 429.4127 473.0765)" class="st6 st2 st3">MARCH 2025</text>
	<rect x="548.3" y="416.5" class="st0" width="74.8" height="19.1"/>
	<text transform="matrix(1 0 0 1 551.7361 425.083)" class="st7 st2 st3">MARCH 2025</text>
	<rect x="676.6" y="462.6" class="st0" width="74.8" height="19.1"/>
	<text transform="matrix(1 0 0 1 680.0596 471.0895)" class="st8 st2 st3">MARCH 2025</text>
	<rect x="801" y="414.6" class="st0" width="74.8" height="19.1"/>
	<text transform="matrix(1 0 0 1 804.3831 423.096)" class="st9 st2 st3">MARCH 2025</text>
	<rect x="927.3" y="460.6" class="st0" width="74.8" height="19.1"/>
	<text transform="matrix(1 0 0 1 930.7065 469.1025)" class="st10 st2 st3">MARCH 2025</text>
	<rect x="1049.6" y="412.6" class="st0" width="74.8" height="19.1"/>
	<text transform="matrix(1 0 0 1 1053.03 421.109)" class="st11 st2 st3">MARCH 2025</text>
</g>
<g id="Layer_2">
	<g>
		<polygon class="st11" points="1087.3,311.7 1094.6,311.7 1090.9,344.8 1087.3,377.8 1083.7,344.8 1080,311.7 		"/>
		<circle class="st11" cx="1087.3" cy="276.5" r="38.5"/>
		<g>
			
				<image style="overflow:visible;opacity:0.3;" width="292" height="292" xlink:href="19F5FEE0.png"  transform="matrix(0.24 0 0 0.24 1057.2423 246.48)">
			</image>
			<g>
				<linearGradient id="SVGID_1_" gradientUnits="userSpaceOnUse" x1="1058.908" y1="276.5323" x2="1115.6746" y2="276.5323">
					<stop  offset="0" style="stop-color:#FFFFFF"/>
					<stop  offset="1" style="stop-color:#F1F2F2"/>
				</linearGradient>
				<circle class="st12" cx="1087.3" cy="276.5" r="28.4"/>
				
					<linearGradient id="SVGID_00000094619888612568022940000003545413581271737008_" gradientUnits="userSpaceOnUse" x1="1058.408" y1="276.5323" x2="1116.1746" y2="276.5323">
					<stop  offset="0" style="stop-color:#F1F2F2"/>
					<stop  offset="1" style="stop-color:#FFFFFF"/>
				</linearGradient>
				
					<circle style="fill:none;stroke:url(#SVGID_00000094619888612568022940000003545413581271737008_);stroke-miterlimit:10;" cx="1087.3" cy="276.5" r="28.4"/>
			</g>
		</g>
	</g>
	<g>
		<polygon class="st10" points="967.2,366.5 974.4,366.5 970.8,399.6 967.2,432.6 963.5,399.6 959.9,366.5 		"/>
		<circle class="st10" cx="967.2" cy="331.3" r="38.5"/>
		<g>
			
				<image style="overflow:visible;opacity:0.3;" width="291" height="291" xlink:href="19F5FEE7.png"  transform="matrix(0.24 0 0 0.24 937.2424 301.44)">
			</image>
			<g>
				
					<linearGradient id="SVGID_00000149351961708168475540000011088032017373334452_" gradientUnits="userSpaceOnUse" x1="938.7945" y1="331.3477" x2="995.5612" y2="331.3477">
					<stop  offset="0" style="stop-color:#FFFFFF"/>
					<stop  offset="1" style="stop-color:#F1F2F2"/>
				</linearGradient>
				<circle style="fill:url(#SVGID_00000149351961708168475540000011088032017373334452_);" cx="967.2" cy="331.3" r="28.4"/>
				
					<linearGradient id="SVGID_00000180342318307669466360000017933332570005937342_" gradientUnits="userSpaceOnUse" x1="938.2945" y1="331.3477" x2="996.0612" y2="331.3477">
					<stop  offset="0" style="stop-color:#F1F2F2"/>
					<stop  offset="1" style="stop-color:#FFFFFF"/>
				</linearGradient>
				
					<circle style="fill:none;stroke:url(#SVGID_00000180342318307669466360000017933332570005937342_);stroke-miterlimit:10;" cx="967.2" cy="331.3" r="28.4"/>
			</g>
		</g>
	</g>
	<g>
		<polygon class="st9" points="839.3,311.7 846.5,311.7 842.9,344.8 839.3,377.8 835.6,344.8 832,311.7 		"/>
		<circle class="st9" cx="839.3" cy="276.5" r="38.5"/>
		<g>
			
				<image style="overflow:visible;opacity:0.3;" width="291" height="292" xlink:href="19F5FEE1.png"  transform="matrix(0.24 0 0 0.24 809.3223 246.48)">
			</image>
			<g>
				
					<linearGradient id="SVGID_00000001623346730563326470000001428804131283259820_" gradientUnits="userSpaceOnUse" x1="810.8823" y1="276.5323" x2="867.6489" y2="276.5323">
					<stop  offset="0" style="stop-color:#FFFFFF"/>
					<stop  offset="1" style="stop-color:#F1F2F2"/>
				</linearGradient>
				<circle style="fill:url(#SVGID_00000001623346730563326470000001428804131283259820_);" cx="839.3" cy="276.5" r="28.4"/>
				
					<linearGradient id="SVGID_00000116199735909396915660000012441799925419812268_" gradientUnits="userSpaceOnUse" x1="810.3823" y1="276.5323" x2="868.1489" y2="276.5323">
					<stop  offset="0" style="stop-color:#F1F2F2"/>
					<stop  offset="1" style="stop-color:#FFFFFF"/>
				</linearGradient>
				
					<circle style="fill:none;stroke:url(#SVGID_00000116199735909396915660000012441799925419812268_);stroke-miterlimit:10;" cx="839.3" cy="276.5" r="28.4"/>
			</g>
		</g>
	</g>
	<g>
		<circle class="st8" cx="714.7" cy="331.3" r="38.5"/>
		<g>
			
				<image style="overflow:visible;opacity:0.3;" width="291" height="291" xlink:href="19F5FEE3.png"  transform="matrix(0.24 0 0 0.24 684.7623 301.44)">
			</image>
			<g>
				
					<linearGradient id="SVGID_00000183928069765720830310000000537442132226611601_" gradientUnits="userSpaceOnUse" x1="686.3124" y1="331.3477" x2="743.079" y2="331.3477">
					<stop  offset="0" style="stop-color:#FFFFFF"/>
					<stop  offset="1" style="stop-color:#F1F2F2"/>
				</linearGradient>
				<circle style="fill:url(#SVGID_00000183928069765720830310000000537442132226611601_);" cx="714.7" cy="331.3" r="28.4"/>
				
					<linearGradient id="SVGID_00000110458913537009087670000010529270213297382554_" gradientUnits="userSpaceOnUse" x1="685.8124" y1="331.3477" x2="743.579" y2="331.3477">
					<stop  offset="0" style="stop-color:#F1F2F2"/>
					<stop  offset="1" style="stop-color:#FFFFFF"/>
				</linearGradient>
				
					<circle style="fill:none;stroke:url(#SVGID_00000110458913537009087670000010529270213297382554_);stroke-miterlimit:10;" cx="714.7" cy="331.3" r="28.4"/>
			</g>
		</g>
		<polygon class="st8" points="714.7,366.5 722,366.5 718.3,399.6 714.7,432.6 711.1,399.6 707.4,366.5 		"/>
	</g>
	<g>
		<polygon class="st7" points="587.9,311.7 595.2,311.7 591.5,344.8 587.9,377.8 584.3,344.8 580.6,311.7 		"/>
		<circle class="st7" cx="587.9" cy="276.5" r="38.5"/>
		<g>
			
				<image style="overflow:visible;opacity:0.3;" width="292" height="292" xlink:href="19F5FEEE.png"  transform="matrix(0.24 0 0 0.24 557.8024 246.48)">
			</image>
			<g>
				
					<linearGradient id="SVGID_00000098911922039133358650000016115544521688801942_" gradientUnits="userSpaceOnUse" x1="559.5142" y1="276.5323" x2="616.2809" y2="276.5323">
					<stop  offset="0" style="stop-color:#FFFFFF"/>
					<stop  offset="1" style="stop-color:#F1F2F2"/>
				</linearGradient>
				<circle style="fill:url(#SVGID_00000098911922039133358650000016115544521688801942_);" cx="587.9" cy="276.5" r="28.4"/>
				
					<linearGradient id="SVGID_00000099626592539976071350000003955706263744484504_" gradientUnits="userSpaceOnUse" x1="559.0142" y1="276.5323" x2="616.7809" y2="276.5323">
					<stop  offset="0" style="stop-color:#F1F2F2"/>
					<stop  offset="1" style="stop-color:#FFFFFF"/>
				</linearGradient>
				
					<circle style="fill:none;stroke:url(#SVGID_00000099626592539976071350000003955706263744484504_);stroke-miterlimit:10;" cx="587.9" cy="276.5" r="28.4"/>
			</g>
		</g>
	</g>
	<g>
		<polygon class="st6" points="466.7,366.5 473.9,366.5 470.3,399.6 466.7,432.6 463,399.6 459.4,366.5 		"/>
		<circle class="st6" cx="466.7" cy="331.3" r="38.5"/>
		<g>
			
				<image style="overflow:visible;opacity:0.3;" width="292" height="291" xlink:href="19F5FEEF.png"  transform="matrix(0.24 0 0 0.24 436.6024 301.44)">
			</image>
			<g>
				
					<linearGradient id="SVGID_00000158021761169556228970000006939327308830455687_" gradientUnits="userSpaceOnUse" x1="438.2867" y1="331.3477" x2="495.0534" y2="331.3477">
					<stop  offset="0" style="stop-color:#FFFFFF"/>
					<stop  offset="1" style="stop-color:#F1F2F2"/>
				</linearGradient>
				<circle style="fill:url(#SVGID_00000158021761169556228970000006939327308830455687_);" cx="466.7" cy="331.3" r="28.4"/>
				
					<linearGradient id="SVGID_00000005969191358168220290000007336577556860981379_" gradientUnits="userSpaceOnUse" x1="437.7867" y1="331.3477" x2="495.5534" y2="331.3477">
					<stop  offset="0" style="stop-color:#F1F2F2"/>
					<stop  offset="1" style="stop-color:#FFFFFF"/>
				</linearGradient>
				
					<circle style="fill:none;stroke:url(#SVGID_00000005969191358168220290000007336577556860981379_);stroke-miterlimit:10;" cx="466.7" cy="331.3" r="28.4"/>
			</g>
		</g>
	</g>
	<g>
		<polygon class="st5" points="332.1,311.7 339.3,311.7 335.7,344.8 332.1,377.8 328.4,344.8 324.8,311.7 		"/>
		<circle class="st5" cx="332.1" cy="276.5" r="38.5"/>
		<g>
			
				<image style="overflow:visible;opacity:0.3;" width="292" height="292" xlink:href="19F5FEE2.png"  transform="matrix(0.24 0 0 0.24 301.9623 246.48)">
			</image>
			<g>
				
					<linearGradient id="SVGID_00000167361700606275669930000006801422568557974199_" gradientUnits="userSpaceOnUse" x1="303.6898" y1="276.5323" x2="360.4565" y2="276.5323">
					<stop  offset="0" style="stop-color:#FFFFFF"/>
					<stop  offset="1" style="stop-color:#F1F2F2"/>
				</linearGradient>
				<circle style="fill:url(#SVGID_00000167361700606275669930000006801422568557974199_);" cx="332.1" cy="276.5" r="28.4"/>
				
					<linearGradient id="SVGID_00000174579667795371190920000011732350953749000832_" gradientUnits="userSpaceOnUse" x1="303.1898" y1="276.5323" x2="360.9565" y2="276.5323">
					<stop  offset="0" style="stop-color:#F1F2F2"/>
					<stop  offset="1" style="stop-color:#FFFFFF"/>
				</linearGradient>
				
					<circle style="fill:none;stroke:url(#SVGID_00000174579667795371190920000011732350953749000832_);stroke-miterlimit:10;" cx="332.1" cy="276.5" r="28.4"/>
			</g>
		</g>
	</g>
	<g>
		<polygon class="st1" points="213.7,363.6 221,363.6 217.4,396.6 213.7,429.6 210.1,396.6 206.5,363.6 		"/>
		<circle class="st1" cx="213.7" cy="328.4" r="38.5"/>
		<g>
			
				<image style="overflow:visible;opacity:0.3;" width="292" height="292" xlink:href="19F5FEE5.png"  transform="matrix(0.24 0 0 0.24 183.6423 298.32)">
			</image>
			<g>
				
					<linearGradient id="SVGID_00000015323648735058605100000014319744520013851781_" gradientUnits="userSpaceOnUse" x1="185.3663" y1="328.3692" x2="242.133" y2="328.3692">
					<stop  offset="0" style="stop-color:#FFFFFF"/>
					<stop  offset="1" style="stop-color:#F1F2F2"/>
				</linearGradient>
				<circle style="fill:url(#SVGID_00000015323648735058605100000014319744520013851781_);" cx="213.7" cy="328.4" r="28.4"/>
				
					<linearGradient id="SVGID_00000121255532369496303790000003628193780198188707_" gradientUnits="userSpaceOnUse" x1="184.8663" y1="328.3692" x2="242.633" y2="328.3692">
					<stop  offset="0" style="stop-color:#F1F2F2"/>
					<stop  offset="1" style="stop-color:#FFFFFF"/>
				</linearGradient>
				
					<circle style="fill:none;stroke:url(#SVGID_00000121255532369496303790000003628193780198188707_);stroke-miterlimit:10;" cx="213.7" cy="328.4" r="28.4"/>
			</g>
		</g>
	</g>
</g>
<g id="Layer_3">
	<g>
		<path class="st28" d="M0.4,414.9c11.5,0,25.4-3.8,34.6-10.7c37.7-28.5,75.7-25.4,114,10.7c39.4,34.4,79,36,118.8,0
			c42.9-39.1,85.1-40.5,126.6,0c43.1,34.4,85.4,36,126.6,0c43.3-38.8,85.5-40.8,126.6,0c42.2,35.2,84.4,35.2,126.6,0
			c42.2-39.8,84.4-39.8,126.6,0c49,38.8,89.9,31.5,126.6,0c38.2-34.2,76.5-37.4,114.7-9.6c8.7,6.3,19.2,9.6,29.9,9.6h33.6"/>
		<path class="st29" d="M0,406.2c11.5,0,27.1-3.8,36.2-10.7c37.7-28.5,75.7-25.4,114,10.7c39.4,34.4,79,36,118.8,0
			c42.9-39.1,85.1-40.5,126.6,0c43.1,34.4,85.4,36,126.6,0c43.3-38.8,85.5-40.8,126.6,0c42.2,35.2,84.4,35.2,126.6,0
			c42.2-39.8,84.4-39.8,126.6,0c49,38.8,89.9,31.5,126.6,0c38.2-34.2,76.5-37.4,114.7-9.6c8.7,6.3,19.2,9.6,29.9,9.6h33"/>
		<path class="st30" d="M712.2,444.3c-23.8,0-47.6-9.8-70.8-29.1l-0.8-0.7c-35.6-35.4-70.7-35.3-110.6,0.4L530,415
			c-22.5,19.6-46.2,29.4-70.4,29.3c-23.4-0.2-47.4-10-71.2-28.9L388,415l-0.4-0.4c-36.4-35.5-71.5-35.4-110.6,0.3
			c-21.6,19.6-44.1,29.4-66.7,29.4c-22.6,0-45.3-9.7-67.6-29.2l-0.3-0.3c-34-32.1-65.5-35.2-99-9.9c-11.1,8.4-29.4,13.1-43.3,13.1
			l0.4-23.4c8.8,0,21.7-3,28.8-8.3c42.3-32.1,86.9-28.1,129,11.4c35.9,31.2,68.6,31.2,103.1,0c47.9-43.7,97.1-43.8,142.2-0.1
			c39.7,31.5,75.1,31.5,111.1,0c48.8-43.7,98-43.6,142.2,0.1c37.8,31.4,73.1,31.3,111-0.1c46.5-43.7,95.6-43.7,142-0.1
			c40.1,31.6,74.5,31.6,111.3,0.1c20.9-18.7,42.5-29.1,64.1-30.9c21.9-1.8,43.8,5.1,65.2,20.6c6.7,4.8,14.6,7.4,23,7.4h33v23.4h-33
			c-13.4,0-26.1-4.1-36.8-11.9c-33.9-24.6-65.7-21.8-100,8.9l-0.2,0.2c-22.6,19.5-45.9,29.2-69.6,29.2c-23.6,0-47.6-9.6-71.9-28.9
			l-0.8-0.7c-37.7-35.6-72.8-35.6-110.6,0l-0.5,0.5C759.9,434.5,736.1,444.3,712.2,444.3z"/>
		<g>
			<g>
				<line class="st31" x1="0.4" y1="406.2" x2="4.4" y2="406.2"/>
				<path class="st32" d="M13.4,405.4c8.2-1.4,16.1-4.8,22.8-9.9c1.3-1,2.5-1.9,3.8-2.8"/>
				<path class="st33" d="M43.8,390.2c35.2-22.7,70.7-17.7,106.5,16c39.4,34.4,79,36,118.8,0c42.9-39.1,85.1-40.5,126.6,0
					c43.1,34.4,85.4,36,126.6,0c43.3-38.8,85.5-40.8,126.6,0c42.2,35.2,84.4,35.2,126.6,0c42.2-39.8,84.4-39.8,126.6,0
					c49,38.8,89.9,31.5,126.6,0c38.2-34.2,76.5-37.4,114.7-9.6c8.7,6.3,19.2,9.6,29.9,9.6h24.4"/>
				<line class="st31" x1="1202.4" y1="406.2" x2="1206.4" y2="406.2"/>
			</g>
		</g>
	</g>
</g>
</svg>
