<?xml version="1.0" encoding="utf-8"?>
<!-- Generator: Adobe Illustrator 26.0.1, SVG Export Plug-In . SVG Version: 6.00 Build 0)  -->
<svg version="1.1" xmlns="http://www.w3.org/2000/svg" xmlns:xlink="http://www.w3.org/1999/xlink" x="0px" y="0px"
	 viewBox="0 0 1205.8 595.3" style="enable-background:new 0 0 1205.8 595.3;" xml:space="preserve">
<style type="text/css">
	.st0{fill:none;}
	.st1{fill:#AC6FAF;}
	.st2{font-family:'Ubuntu-Bold';}
	.st3{font-size:11px;}
	.st4{fill:#323333;}
	.st5{font-size:13px;}
	.st6{fill:#195C7C;}
	.st7{fill:#2FB5C2;}
	.st8{fill:#6CC4A1;}
	.st9{fill:#CEDC2A;}
	.st10{fill:#FAAE29;}
	.st11{fill:#EC474B;}
	.st12{fill:#A63779;}
	.st13{fill:#B3E1E8;stroke:#97D8E3;stroke-width:3;stroke-miterlimit:10;}
	.st14{fill:#6E7A8A;}
	.st15{fill:url(#SVGID_1_);}
	.st16{fill:#F68B23;}
	.st17{fill:#FFFFFF;}
	.st18{fill:#383938;}
	.st19{font-size:8.0102px;}
	.st20{fill:url(#SVGID_00000131329540758790117030000009729569821002107066_);}
	.st21{fill:url(#SVGID_00000174570545104563085740000014100422812235722168_);}
	.st22{fill:none;stroke:url(#SVGID_00000127030954579778067420000010852572213280923019_);stroke-miterlimit:10;}
	.st23{fill:url(#SVGID_00000122722898206810178730000000916238620821541261_);}
	.st24{fill:none;stroke:url(#SVGID_00000047738262600345547990000013625769980282448828_);stroke-miterlimit:10;}
	.st25{fill:url(#SVGID_00000047757600151881919590000004573146086299922838_);}
	.st26{fill:none;stroke:url(#SVGID_00000103265446712244661250000016241658002009032069_);stroke-miterlimit:10;}
	.st27{fill:url(#SVGID_00000071532517657129431850000009595818798773405592_);}
	.st28{fill:none;stroke:url(#SVGID_00000016064838732369401000000009356638455573018790_);stroke-miterlimit:10;}
	.st29{fill:url(#SVGID_00000068642868892920483920000018234099841849709474_);}
	.st30{fill:none;stroke:url(#SVGID_00000050629717733254112230000001513189999803746228_);stroke-miterlimit:10;}
	.st31{fill:url(#SVGID_00000127029451036725979160000004686287120632564624_);}
	.st32{fill:none;stroke:url(#SVGID_00000098195572994043509850000008541171895272803742_);stroke-miterlimit:10;}
	.st33{fill:url(#SVGID_00000155864770915190548470000017629274070158307222_);}
	.st34{fill:none;stroke:url(#SVGID_00000000940308352888636290000015746854172700188322_);stroke-miterlimit:10;}
	.st35{fill:url(#SVGID_00000122706397470207374290000014351597198937849999_);}
	.st36{fill:none;stroke:url(#SVGID_00000163775000966027780200000002835485368810325161_);stroke-miterlimit:10;}
	.st37{fill:none;stroke:#333333;stroke-width:25;stroke-miterlimit:10;}
	.st38{fill:none;stroke:#4D4E4E;stroke-width:25;stroke-miterlimit:10;}
	.st39{fill:none;stroke:#FFFFFF;stroke-width:0.75;stroke-miterlimit:10;}
	.st40{fill:none;stroke:#FFFFFF;stroke-width:2;stroke-miterlimit:10;}
	.st41{fill:none;stroke:#FFFFFF;stroke-width:2;stroke-miterlimit:10;stroke-dasharray:8.0845,9.0951,8.0845,9.0951;}
	.st42{fill:none;stroke:#FFFFFF;stroke-width:2;stroke-miterlimit:10;stroke-dasharray:8.0845,9.0951,8.0845,9.0951,8.0845,9.0951;}
</style>
<g id="Layer_1">
	
		<image style="display:none;overflow:visible;" width="1280" height="670" xlink:href="../Downloads/WhatsApp Image 2025-02-12 at 12.52.56 PM.jpeg"  transform="matrix(0.7624 0 0 0.7624 804.7059 626.8377)">
	</image>
	<rect x="176.3" y="466.5" class="st0" width="74.8" height="19.1"/>
	<text transform="matrix(1 0 0 1 179.7657 475.0635)" class="st1 st2 st3">MARCH 2025</text>
	<rect x="108.2" y="570.5" class="st0" width="394.8" height="18.3"/>
	<text transform="matrix(1 0 0 1 228.7415 579.0648)" class="st4 st2 st3">TECHNICAL SKILLS TRACKER</text>
	<rect x="728.1" y="570.1" class="st0" width="394.8" height="18.3"/>
	<text transform="matrix(1 0 0 1 834.0285 578.5949)" class="st4 st2 st3">NON-TECHNICAL SKILLS TRACKER</text>
	<rect x="176.3" y="267" class="st0" width="74.8" height="19.1"/>
	<text transform="matrix(1 0 0 1 204.2271 277.0906)" class="st1 st2 st5">M1</text>
	<rect x="294.7" y="218.9" class="st0" width="74.8" height="19.1"/>
	<text transform="matrix(1 0 0 1 322.5506 229.0159)" class="st6 st2 st5">M2</text>
	<rect x="430.2" y="267.6" class="st0" width="74.8" height="19.1"/>
	<text transform="matrix(1 0 0 1 458.0607 277.6491)" class="st7 st2 st5">M3</text>
	<rect x="552.5" y="219.5" class="st0" width="74.8" height="19.1"/>
	<text transform="matrix(1 0 0 1 580.3841 229.5742)" class="st8 st2 st5">M4</text>
	<rect x="677.3" y="268.3" class="st0" width="74.8" height="19.1"/>
	<text transform="matrix(1 0 0 1 705.1732 278.4027)" class="st9 st2 st5">M5</text>
	<rect x="801.9" y="220" class="st0" width="74.8" height="19.1"/>
	<text transform="matrix(1 0 0 1 829.743 230.1325)" class="st10 st2 st5">M6</text>
	<rect x="929.2" y="269.1" class="st0" width="74.8" height="19.1"/>
	<text transform="matrix(1 0 0 1 957.0682 279.1563)" class="st11 st2 st5">M7</text>
	<rect x="1049.6" y="220.8" class="st0" width="74.8" height="19.1"/>
	<text transform="matrix(1 0 0 1 1077.4915 230.8724)" class="st12 st2 st5">M8</text>
	<rect x="294.7" y="418.5" class="st0" width="74.8" height="19.1"/>
	<text transform="matrix(1 0 0 1 298.0892 427.07)" class="st6 st2 st3">MARCH 2025</text>
	<rect x="426" y="464.5" class="st0" width="74.8" height="19.1"/>
	<text transform="matrix(1 0 0 1 429.4127 473.0765)" class="st7 st2 st3">MARCH 2025</text>
	<rect x="548.3" y="416.5" class="st0" width="74.8" height="19.1"/>
	<text transform="matrix(1 0 0 1 551.7361 425.083)" class="st8 st2 st3">MARCH 2025</text>
	<rect x="676.6" y="462.6" class="st0" width="74.8" height="19.1"/>
	<text transform="matrix(1 0 0 1 680.0596 471.0895)" class="st9 st2 st3">MARCH 2025</text>
	<rect x="801" y="414.6" class="st0" width="74.8" height="19.1"/>
	<text transform="matrix(1 0 0 1 804.3831 423.096)" class="st10 st2 st3">MARCH 2025</text>
	<rect x="927.3" y="460.6" class="st0" width="74.8" height="19.1"/>
	<text transform="matrix(1 0 0 1 930.7065 469.1025)" class="st11 st2 st3">MARCH 2025</text>
	<rect x="1049.6" y="412.6" class="st0" width="74.8" height="19.1"/>
	<text transform="matrix(1 0 0 1 1053.03 421.109)" class="st12 st2 st3">MARCH 2025</text>
	<path class="st13" d="M512.6,553.3H116.4c-5.7,0-10.4-4.6-10.4-10.4l0,0c0-5.7,4.6-10.4,10.4-10.4h396.3c5.7,0,10.4,4.6,10.4,10.4
		l0,0C523,548.6,518.4,553.3,512.6,553.3z"/>
	<g>
		
			<image style="overflow:visible;opacity:0.3;" width="872" height="137" xlink:href="BA613497.png"  transform="matrix(0.24 0 0 0.24 103.8541 526.5094)">
		</image>
		<g>
			<path class="st14" d="M292.6,553.4H116.4c-5.7,0-10.4-4.6-10.4-10.4l0,0c0-5.7,4.6-10.4,10.4-10.4h176.2
				c5.7,0,10.4,4.6,10.4,10.4l0,0C303,548.7,298.3,553.4,292.6,553.4z"/>
		</g>
	</g>
	<linearGradient id="SVGID_1_" gradientUnits="userSpaceOnUse" x1="204.4873" y1="553.1697" x2="204.4873" y2="532.4375">
		<stop  offset="0" style="stop-color:#000000;stop-opacity:0"/>
		<stop  offset="8.071114e-02" style="stop-color:#0D0D0D;stop-opacity:4.483952e-02"/>
		<stop  offset="0.2303" style="stop-color:#2F2F2F;stop-opacity:0.1279"/>
		<stop  offset="0.4323" style="stop-color:#676767;stop-opacity:0.2402"/>
		<stop  offset="0.676" style="stop-color:#B3B3B3;stop-opacity:0.3756"/>
		<stop  offset="0.9" style="stop-color:#FFFFFF;stop-opacity:0.5"/>
	</linearGradient>
	<path class="st15" d="M292.6,553.2H116.4c-5.7,0-10.4-4.6-10.4-10.4v0c0-5.7,4.6-10.4,10.4-10.4h176.2c5.7,0,10.4,4.6,10.4,10.4v0
		C303,548.5,298.3,553.2,292.6,553.2z"/>
	<g>
		<path class="st16" d="M319.7,502.4c0,7.6-11.4,25.9-15.4,32c-0.6,1-2,1-2.7,0c-4-6.1-15.4-24.3-15.4-32c0-9.2,7.5-16.7,16.7-16.7
			C312.2,485.7,319.7,493.2,319.7,502.4z"/>
		<circle class="st17" cx="303" cy="502.4" r="13"/>
		<rect x="288.5" y="499.2" class="st0" width="28.9" height="25.1"/>
		<text transform="matrix(1 0 0 1 294.739 505.4565)" class="st18 st2 st19">50%</text>
	</g>
	<path class="st13" d="M1121.6,552.6H725.3c-5.7,0-10.4-4.6-10.4-10.4l0,0c0-5.7,4.6-10.4,10.4-10.4h396.3c5.7,0,10.4,4.6,10.4,10.4
		l0,0C1132,547.9,1127.3,552.6,1121.6,552.6z"/>
	<g>
		
			<image style="overflow:visible;opacity:0.3;" width="606" height="137" xlink:href="BA613495.png"  transform="matrix(0.24 0 0 0.24 712.8423 525.84)">
		</image>
		<g>
			<path class="st14" d="M837.8,552.6H725.3c-5.7,0-10.4-4.6-10.4-10.4l0,0c0-5.7,4.6-10.4,10.4-10.4h112.4
				c5.7,0,10.4,4.6,10.4,10.4l0,0C848.1,548,843.5,552.6,837.8,552.6z"/>
		</g>
	</g>
	
		<linearGradient id="SVGID_00000086667316564297284840000005056865380356834221_" gradientUnits="userSpaceOnUse" x1="781.5414" y1="552.4572" x2="781.5414" y2="531.725">
		<stop  offset="0" style="stop-color:#000000;stop-opacity:0"/>
		<stop  offset="8.071114e-02" style="stop-color:#0D0D0D;stop-opacity:4.483952e-02"/>
		<stop  offset="0.2303" style="stop-color:#2F2F2F;stop-opacity:0.1279"/>
		<stop  offset="0.4323" style="stop-color:#676767;stop-opacity:0.2402"/>
		<stop  offset="0.676" style="stop-color:#B3B3B3;stop-opacity:0.3756"/>
		<stop  offset="0.9" style="stop-color:#FFFFFF;stop-opacity:0.5"/>
	</linearGradient>
	<path style="fill:url(#SVGID_00000086667316564297284840000005056865380356834221_);" d="M837.8,552.5H725.3
		c-5.7,0-10.4-4.6-10.4-10.4v0c0-5.7,4.6-10.4,10.4-10.4h112.4c5.7,0,10.4,4.6,10.4,10.4v0C848.1,547.8,843.5,552.5,837.8,552.5z"/>
	<path class="st11" d="M860.2,503.1c0,7.6-11.4,25.9-15.4,32c-0.6,1-2,1-2.7,0c-4-6.1-15.4-24.3-15.4-32c0-9.2,7.5-16.7,16.7-16.7
		C852.7,486.4,860.2,493.9,860.2,503.1z"/>
	<circle class="st17" cx="843.5" cy="503.1" r="13"/>
	<rect x="829" y="499.9" class="st0" width="28.9" height="25.1"/>
	<text transform="matrix(1 0 0 1 835.2346 506.1563)" class="st18 st2 st19">25%</text>
</g>
<g id="Layer_2">
	<g>
		<polygon class="st12" points="1087.3,311.7 1094.6,311.7 1090.9,344.8 1087.3,377.8 1083.7,344.8 1080,311.7 		"/>
		<circle class="st12" cx="1087.3" cy="276.5" r="38.5"/>
		<g>
			
				<image style="overflow:visible;opacity:0.3;" width="292" height="292" xlink:href="BA613493.png"  transform="matrix(0.24 0 0 0.24 1057.2423 246.48)">
			</image>
			<g>
				
					<linearGradient id="SVGID_00000098184034473382954710000004649234997649288368_" gradientUnits="userSpaceOnUse" x1="1058.908" y1="276.5323" x2="1115.6746" y2="276.5323">
					<stop  offset="0" style="stop-color:#FFFFFF"/>
					<stop  offset="1" style="stop-color:#F1F2F2"/>
				</linearGradient>
				<circle style="fill:url(#SVGID_00000098184034473382954710000004649234997649288368_);" cx="1087.3" cy="276.5" r="28.4"/>
				
					<linearGradient id="SVGID_00000045609668696535493690000017848504659613473206_" gradientUnits="userSpaceOnUse" x1="1058.408" y1="276.5323" x2="1116.1746" y2="276.5323">
					<stop  offset="0" style="stop-color:#F1F2F2"/>
					<stop  offset="1" style="stop-color:#FFFFFF"/>
				</linearGradient>
				
					<circle style="fill:none;stroke:url(#SVGID_00000045609668696535493690000017848504659613473206_);stroke-miterlimit:10;" cx="1087.3" cy="276.5" r="28.4"/>
			</g>
		</g>
	</g>
	<g>
		<polygon class="st11" points="967.2,366.5 974.4,366.5 970.8,399.6 967.2,432.6 963.5,399.6 959.9,366.5 		"/>
		<circle class="st11" cx="967.2" cy="331.3" r="38.5"/>
		<g>
			
				<image style="overflow:visible;opacity:0.3;" width="291" height="291" xlink:href="BA61349D.png"  transform="matrix(0.24 0 0 0.24 937.2424 301.44)">
			</image>
			<g>
				
					<linearGradient id="SVGID_00000176023268777175513120000018411498584554766504_" gradientUnits="userSpaceOnUse" x1="938.7945" y1="331.3477" x2="995.5612" y2="331.3477">
					<stop  offset="0" style="stop-color:#FFFFFF"/>
					<stop  offset="1" style="stop-color:#F1F2F2"/>
				</linearGradient>
				<circle style="fill:url(#SVGID_00000176023268777175513120000018411498584554766504_);" cx="967.2" cy="331.3" r="28.4"/>
				
					<linearGradient id="SVGID_00000137117428438027426490000000264591960199586227_" gradientUnits="userSpaceOnUse" x1="938.2945" y1="331.3477" x2="996.0612" y2="331.3477">
					<stop  offset="0" style="stop-color:#F1F2F2"/>
					<stop  offset="1" style="stop-color:#FFFFFF"/>
				</linearGradient>
				
					<circle style="fill:none;stroke:url(#SVGID_00000137117428438027426490000000264591960199586227_);stroke-miterlimit:10;" cx="967.2" cy="331.3" r="28.4"/>
			</g>
		</g>
	</g>
	<g>
		<polygon class="st10" points="839.3,311.7 846.5,311.7 842.9,344.8 839.3,377.8 835.6,344.8 832,311.7 		"/>
		<circle class="st10" cx="839.3" cy="276.5" r="38.5"/>
		<g>
			
				<image style="overflow:visible;opacity:0.3;" width="291" height="292" xlink:href="BA61349F.png"  transform="matrix(0.24 0 0 0.24 809.3223 246.48)">
			</image>
			<g>
				
					<linearGradient id="SVGID_00000038412715315944239350000015482323663021994665_" gradientUnits="userSpaceOnUse" x1="810.8823" y1="276.5323" x2="867.6489" y2="276.5323">
					<stop  offset="0" style="stop-color:#FFFFFF"/>
					<stop  offset="1" style="stop-color:#F1F2F2"/>
				</linearGradient>
				<circle style="fill:url(#SVGID_00000038412715315944239350000015482323663021994665_);" cx="839.3" cy="276.5" r="28.4"/>
				
					<linearGradient id="SVGID_00000099636960972824855570000002974609702051423928_" gradientUnits="userSpaceOnUse" x1="810.3823" y1="276.5323" x2="868.1489" y2="276.5323">
					<stop  offset="0" style="stop-color:#F1F2F2"/>
					<stop  offset="1" style="stop-color:#FFFFFF"/>
				</linearGradient>
				
					<circle style="fill:none;stroke:url(#SVGID_00000099636960972824855570000002974609702051423928_);stroke-miterlimit:10;" cx="839.3" cy="276.5" r="28.4"/>
			</g>
		</g>
	</g>
	<g>
		<circle class="st9" cx="714.7" cy="331.3" r="38.5"/>
		<g>
			
				<image style="overflow:visible;opacity:0.3;" width="291" height="291" xlink:href="BA613492.png"  transform="matrix(0.24 0 0 0.24 684.7623 301.44)">
			</image>
			<g>
				
					<linearGradient id="SVGID_00000119093713094345599390000008326807108347655571_" gradientUnits="userSpaceOnUse" x1="686.3124" y1="331.3477" x2="743.079" y2="331.3477">
					<stop  offset="0" style="stop-color:#FFFFFF"/>
					<stop  offset="1" style="stop-color:#F1F2F2"/>
				</linearGradient>
				<circle style="fill:url(#SVGID_00000119093713094345599390000008326807108347655571_);" cx="714.7" cy="331.3" r="28.4"/>
				
					<linearGradient id="SVGID_00000126292925653818448530000004912511333960343440_" gradientUnits="userSpaceOnUse" x1="685.8124" y1="331.3477" x2="743.579" y2="331.3477">
					<stop  offset="0" style="stop-color:#F1F2F2"/>
					<stop  offset="1" style="stop-color:#FFFFFF"/>
				</linearGradient>
				
					<circle style="fill:none;stroke:url(#SVGID_00000126292925653818448530000004912511333960343440_);stroke-miterlimit:10;" cx="714.7" cy="331.3" r="28.4"/>
			</g>
		</g>
		<polygon class="st9" points="714.7,366.5 722,366.5 718.3,399.6 714.7,432.6 711.1,399.6 707.4,366.5 		"/>
	</g>
	<g>
		<polygon class="st8" points="587.9,311.7 595.2,311.7 591.5,344.8 587.9,377.8 584.3,344.8 580.6,311.7 		"/>
		<circle class="st8" cx="587.9" cy="276.5" r="38.5"/>
		<g>
			
				<image style="overflow:visible;opacity:0.3;" width="292" height="292" xlink:href="BA613491.png"  transform="matrix(0.24 0 0 0.24 557.8024 246.48)">
			</image>
			<g>
				
					<linearGradient id="SVGID_00000071527097954762567880000001409290160792552576_" gradientUnits="userSpaceOnUse" x1="559.5142" y1="276.5323" x2="616.2809" y2="276.5323">
					<stop  offset="0" style="stop-color:#FFFFFF"/>
					<stop  offset="1" style="stop-color:#F1F2F2"/>
				</linearGradient>
				<circle style="fill:url(#SVGID_00000071527097954762567880000001409290160792552576_);" cx="587.9" cy="276.5" r="28.4"/>
				
					<linearGradient id="SVGID_00000056402642983570281930000017063498751466528935_" gradientUnits="userSpaceOnUse" x1="559.0142" y1="276.5323" x2="616.7809" y2="276.5323">
					<stop  offset="0" style="stop-color:#F1F2F2"/>
					<stop  offset="1" style="stop-color:#FFFFFF"/>
				</linearGradient>
				
					<circle style="fill:none;stroke:url(#SVGID_00000056402642983570281930000017063498751466528935_);stroke-miterlimit:10;" cx="587.9" cy="276.5" r="28.4"/>
			</g>
		</g>
	</g>
	<g>
		<polygon class="st7" points="466.7,366.5 473.9,366.5 470.3,399.6 466.7,432.6 463,399.6 459.4,366.5 		"/>
		<circle class="st7" cx="466.7" cy="331.3" r="38.5"/>
		<g>
			
				<image style="overflow:visible;opacity:0.3;" width="292" height="291" xlink:href="BA613496.png"  transform="matrix(0.24 0 0 0.24 436.6024 301.44)">
			</image>
			<g>
				
					<linearGradient id="SVGID_00000029755674684303306180000016179925371624292766_" gradientUnits="userSpaceOnUse" x1="438.2867" y1="331.3477" x2="495.0534" y2="331.3477">
					<stop  offset="0" style="stop-color:#FFFFFF"/>
					<stop  offset="1" style="stop-color:#F1F2F2"/>
				</linearGradient>
				<circle style="fill:url(#SVGID_00000029755674684303306180000016179925371624292766_);" cx="466.7" cy="331.3" r="28.4"/>
				
					<linearGradient id="SVGID_00000089551791137360461430000015442647578032979884_" gradientUnits="userSpaceOnUse" x1="437.7867" y1="331.3477" x2="495.5534" y2="331.3477">
					<stop  offset="0" style="stop-color:#F1F2F2"/>
					<stop  offset="1" style="stop-color:#FFFFFF"/>
				</linearGradient>
				
					<circle style="fill:none;stroke:url(#SVGID_00000089551791137360461430000015442647578032979884_);stroke-miterlimit:10;" cx="466.7" cy="331.3" r="28.4"/>
			</g>
		</g>
	</g>
	<g>
		<polygon class="st6" points="332.1,311.7 339.3,311.7 335.7,344.8 332.1,377.8 328.4,344.8 324.8,311.7 		"/>
		<circle class="st6" cx="332.1" cy="276.5" r="38.5"/>
		<g>
			
				<image style="overflow:visible;opacity:0.3;" width="292" height="292" xlink:href="F00C999E.png"  transform="matrix(0.24 0 0 0.24 301.9623 246.48)">
			</image>
			<g>
				
					<linearGradient id="SVGID_00000157288987986240497300000009462723399637068453_" gradientUnits="userSpaceOnUse" x1="303.6898" y1="276.5323" x2="360.4565" y2="276.5323">
					<stop  offset="0" style="stop-color:#FFFFFF"/>
					<stop  offset="1" style="stop-color:#F1F2F2"/>
				</linearGradient>
				<circle style="fill:url(#SVGID_00000157288987986240497300000009462723399637068453_);" cx="332.1" cy="276.5" r="28.4"/>
				
					<linearGradient id="SVGID_00000001642014245480658800000005289230816784052870_" gradientUnits="userSpaceOnUse" x1="303.1898" y1="276.5323" x2="360.9565" y2="276.5323">
					<stop  offset="0" style="stop-color:#F1F2F2"/>
					<stop  offset="1" style="stop-color:#FFFFFF"/>
				</linearGradient>
				
					<circle style="fill:none;stroke:url(#SVGID_00000001642014245480658800000005289230816784052870_);stroke-miterlimit:10;" cx="332.1" cy="276.5" r="28.4"/>
			</g>
		</g>
	</g>
	<g>
		<polygon class="st1" points="213.7,363.6 221,363.6 217.4,396.6 213.7,429.6 210.1,396.6 206.5,363.6 		"/>
		<circle class="st1" cx="213.7" cy="328.4" r="38.5"/>
		<g>
			
				<image style="overflow:visible;opacity:0.3;" width="292" height="292" xlink:href="F00C9999.png"  transform="matrix(0.24 0 0 0.24 183.6423 298.32)">
			</image>
			<g>
				
					<linearGradient id="SVGID_00000054964705995218406640000002601099505987579794_" gradientUnits="userSpaceOnUse" x1="185.3663" y1="328.3692" x2="242.133" y2="328.3692">
					<stop  offset="0" style="stop-color:#FFFFFF"/>
					<stop  offset="1" style="stop-color:#F1F2F2"/>
				</linearGradient>
				<circle style="fill:url(#SVGID_00000054964705995218406640000002601099505987579794_);" cx="213.7" cy="328.4" r="28.4"/>
				
					<linearGradient id="SVGID_00000124134369439608260200000011717170947148664249_" gradientUnits="userSpaceOnUse" x1="184.8663" y1="328.3692" x2="242.633" y2="328.3692">
					<stop  offset="0" style="stop-color:#F1F2F2"/>
					<stop  offset="1" style="stop-color:#FFFFFF"/>
				</linearGradient>
				
					<circle style="fill:none;stroke:url(#SVGID_00000124134369439608260200000011717170947148664249_);stroke-miterlimit:10;" cx="213.7" cy="328.4" r="28.4"/>
			</g>
		</g>
	</g>
</g>
<g id="Layer_3">
	<g>
		<path class="st37" d="M0.4,414.9c11.5,0,25.4-3.8,34.6-10.7c37.7-28.5,75.7-25.4,114,10.7c39.4,34.4,79,36,118.8,0
			c42.9-39.1,85.1-40.5,126.6,0c43.1,34.4,85.4,36,126.6,0c43.3-38.8,85.5-40.8,126.6,0c42.2,35.2,84.4,35.2,126.6,0
			c42.2-39.8,84.4-39.8,126.6,0c49,38.8,89.9,31.5,126.6,0c38.2-34.2,76.5-37.4,114.7-9.6c8.7,6.3,19.2,9.6,29.9,9.6h33.6"/>
		<path class="st38" d="M0,406.2c11.5,0,27.1-3.8,36.2-10.7c37.7-28.5,75.7-25.4,114,10.7c39.4,34.4,79,36,118.8,0
			c42.9-39.1,85.1-40.5,126.6,0c43.1,34.4,85.4,36,126.6,0c43.3-38.8,85.5-40.8,126.6,0c42.2,35.2,84.4,35.2,126.6,0
			c42.2-39.8,84.4-39.8,126.6,0c49,38.8,89.9,31.5,126.6,0c38.2-34.2,76.5-37.4,114.7-9.6c8.7,6.3,19.2,9.6,29.9,9.6h33"/>
		<path class="st39" d="M712.2,444.3c-23.8,0-47.6-9.8-70.8-29.1l-0.8-0.7c-35.6-35.4-70.7-35.3-110.6,0.4L530,415
			c-22.5,19.6-46.2,29.4-70.4,29.3c-23.4-0.2-47.4-10-71.2-28.9L388,415l-0.4-0.4c-36.4-35.5-71.5-35.4-110.6,0.3
			c-21.6,19.6-44.1,29.4-66.7,29.4c-22.6,0-45.3-9.7-67.6-29.2l-0.3-0.3c-34-32.1-65.5-35.2-99-9.9c-11.1,8.4-29.4,13.1-43.3,13.1
			l0.4-23.4c8.8,0,21.7-3,28.8-8.3c42.3-32.1,86.9-28.1,129,11.4c35.9,31.2,68.6,31.2,103.1,0c47.9-43.7,97.1-43.8,142.2-0.1
			c39.7,31.5,75.1,31.5,111.1,0c48.8-43.7,98-43.6,142.2,0.1c37.8,31.4,73.1,31.3,111-0.1c46.5-43.7,95.6-43.7,142-0.1
			c40.1,31.6,74.5,31.6,111.3,0.1c20.9-18.7,42.5-29.1,64.1-30.9c21.9-1.8,43.8,5.1,65.2,20.6c6.7,4.8,14.6,7.4,23,7.4h33v23.4h-33
			c-13.4,0-26.1-4.1-36.8-11.9c-33.9-24.6-65.7-21.8-100,8.9l-0.2,0.2c-22.6,19.5-45.9,29.2-69.6,29.2c-23.6,0-47.6-9.6-71.9-28.9
			l-0.8-0.7c-37.7-35.6-72.8-35.6-110.6,0l-0.5,0.5C759.9,434.5,736.1,444.3,712.2,444.3z"/>
		<g>
			<g>
				<line class="st40" x1="0.4" y1="406.2" x2="4.4" y2="406.2"/>
				<path class="st41" d="M13.4,405.4c8.2-1.4,16.1-4.8,22.8-9.9c1.3-1,2.5-1.9,3.8-2.8"/>
				<path class="st42" d="M43.8,390.2c35.2-22.7,70.7-17.7,106.5,16c39.4,34.4,79,36,118.8,0c42.9-39.1,85.1-40.5,126.6,0
					c43.1,34.4,85.4,36,126.6,0c43.3-38.8,85.5-40.8,126.6,0c42.2,35.2,84.4,35.2,126.6,0c42.2-39.8,84.4-39.8,126.6,0
					c49,38.8,89.9,31.5,126.6,0c38.2-34.2,76.5-37.4,114.7-9.6c8.7,6.3,19.2,9.6,29.9,9.6h24.4"/>
				<line class="st40" x1="1202.4" y1="406.2" x2="1206.4" y2="406.2"/>
			</g>
		</g>
	</g>
</g>
</svg>
